# xmcd CD database file generated by LOLA_Freedb v0.9beta0
# 
# Track frame offsets:
#      150
#      10617
#      20829
#      35377
#      46313
#      56628
#      66524
#      78309
# 
# Disc length: 1270 seconds
# 
# Revision: 0 
# Processed by: cddbd v1.5.2PL0 Copyright (c) Steve Scherf et al.
# Submitted via: LOLA_Freedb v0.9beta0
# 
DISCID=6204f408
DTITLE=CitySlickers - The Spirit Of Christmas
DYEAR=2007
DGENRE=
TTITLE0=CitySlickers - Jolly Old St. Nicholas
TTITLE1=CitySlickers - Santa Looked A Lot Loke Daddy
TTITLE2=CitySlickers - Angels We Have Heard On High
TTITLE3=CitySlickers - Rudolph The rednosed Rendeer
TTITLE4=CitySlickers - God Rest Ye Merry Gentlemen
TTITLE5=CitySlickers - Let It Snow
TTITLE6=CitySlickers - The First Noel
TTITLE7=CitySlickers - Christmas Spirit
EXTD=
EXTT0=
EXTT1=
EXTT2=
EXTT3=
EXTT4=
EXTT5=
EXTT6=
EXTT7=
PLAYORDER=
